HIERARCHY
ROOT Hips
{
     OFFSET 1.88212 96.90440 -13.34250
     CHANNELS 6 Xposition Yposition Zposition Zrotation Xrotation Yrotation
     JOINT Spine
     {
          OFFSET 0.00000 11.89050 0.00000
          CHANNELS 3 Zrotation Xrotation Yrotation
          JOINT Spine1
          {
               OFFSET -0.00000 25.65740 0.12766
               CHANNELS 3 Zrotation Xrotation Yrotation
               JOINT HEad
               {
                    OFFSET 0.00000 8.73416 0.01134
                    CHANNELS 3 Zrotation Xrotation Yrotation
                    End Site
                    {
                         OFFSET -0.29000 12.77420 2.51395
                    }
               }
               JOINT LeftShoulder1
               {
                    OFFSET 8.99000 -0.36225 -0.22000
                    CHANNELS 3 Zrotation Xrotation Yrotation
                    JOINT LeftArm
                    {
                         OFFSET 10.28270 -0.00338 0.32212
                         CHANNELS 3 Zrotation Xrotation Yrotation
                         JOINT LeftForeArm
                         {
                              OFFSET 32.76690 0.09914 -1.42434
                              CHANNELS 3 Zrotation Xrotation Yrotation
                              JOINT LeftHand
                              {
                                   OFFSET 27.56430 0.08536 1.02216
                                   CHANNELS 3 Zrotation Xrotation Yrotation
                                   End Site
                                   {
                                        OFFSET 16.74430 -0.60000 1.50291
                                   }
                              }
                         }
                    }
               }
               JOINT RightShoulder
               {
                    OFFSET -8.99000 -0.36225 -0.22000
                    CHANNELS 3 Zrotation Xrotation Yrotation
                    JOINT RightArm
                    {
                         OFFSET -10.28270 -0.00338 0.32212
                         CHANNELS 3 Zrotation Xrotation Yrotation
                         JOINT RightForeArm
                         {
                              OFFSET -32.89710 0.09914 -1.42434
                              CHANNELS 3 Zrotation Xrotation Yrotation
                              JOINT RightHand
                              {
                                   OFFSET -27.49210 0.08536 1.02216
                                   CHANNELS 3 Zrotation Xrotation Yrotation
                                   End Site
                                   {
                                        OFFSET -16.63120 -0.60000 1.50291
                                   }
                              }
                         }
                    }
               }
          }
     }
     JOINT LeftUpLeg
     {
          OFFSET 8.94580 -8.66707 0.10165
          CHANNELS 3 Zrotation Xrotation Yrotation
          JOINT LeftLeg
          {
               OFFSET 0.00000 -44.42270 1.37270
               CHANNELS 3 Zrotation Xrotation Yrotation
               JOINT LeftFoot
               {
                    OFFSET -0.25355 -42.09240 -1.46059
                    CHANNELS 3 Zrotation Xrotation Yrotation
                    JOINT LeftToes
                    {
                         OFFSET -0.04000 -4.41509 8.49910
                         CHANNELS 3 Zrotation Xrotation Yrotation
                         End Site
                         {
                              OFFSET 0.08000 -0.04745 9.77979
                         }
                    }
               }
          }
     }
     JOINT RightUpLeg
     {
          OFFSET -8.94580 -8.66707 0.10165
          CHANNELS 3 Zrotation Xrotation Yrotation
          JOINT RightLeg
          {
               OFFSET 0.00000 -44.42270 1.37270
               CHANNELS 3 Zrotation Xrotation Yrotation
               JOINT RightFoot
               {
                    OFFSET 0.25355 -42.09240 -1.46059
                    CHANNELS 3 Zrotation Xrotation Yrotation
                    JOINT RightToes
                    {
                         OFFSET 0.04000 -4.41509 8.49910
                         CHANNELS 3 Zrotation Xrotation Yrotation
                         End Site
                         {
                              OFFSET -0.08000 -0.13745 9.77979
                         }
                    }
               }
          }
     }
}
MOTION
Frames: 13
Frame Time: 0.01667
44.14082 73.21906 -127.44707 4.73085 -9.85433 -17.39755 -28.92261 55.29783 16.78597 -0.02985 0.07749 -0.01834 -22.33939 -13.01385 17.93454 -0.59357 13.21030 -2.97931 -105.35455 -58.62802 -78.43423 -39.62924 55.59883 -98.06280 8.11524 1.50865 5.36023 5.36418 16.06072 -0.91400 79.36111 -25.40233 80.69564 40.54120 50.16807 90.35740 -5.53005 5.97769 -2.30719 17.87575 -38.90427 13.41722 19.11605 48.65043 -21.54870 -11.36380 0.06863 -0.04499 -11.07356 -14.89222 -1.15755 -29.52740 -39.96775 -3.29443 2.50870 75.10361 8.14573 32.65993 0.03488 0.06389 -29.00576 -34.46792 -4.30342 
44.26275 69.95914 -128.26128 4.38001 -9.82897 -17.18256 -36.37146 59.32725 22.77410 -0.03983 0.07485 -0.00317 -20.35990 -17.30024 16.64680 0.25181 9.45386 -2.30432 -101.08923 -57.15975 -73.28104 -35.24152 54.78422 -102.12541 3.52506 6.78052 4.03231 7.54062 12.16275 0.92438 69.65828 -20.85666 71.74432 30.79084 45.49155 99.79313 -6.34473 11.53693 1.02314 17.11969 -42.30631 12.54271 25.51172 51.98558 -23.44458 -13.24865 0.05403 -0.00912 -12.69139 -18.62442 -2.87965 -30.30385 -43.71485 -3.84735 0.67064 81.36646 10.24398 36.90735 0.05320 0.07685 -33.91566 -37.92722 -4.55796 
44.40822 66.68942 -128.92839 4.09799 -9.75293 -16.79780 -46.19298 62.54873 31.17232 -0.04891 0.06541 0.00208 -17.94411 -21.51090 15.29137 1.49851 5.59315 -1.49818 -98.27800 -55.98338 -70.70748 -33.02260 53.81749 -104.29249 6.42456 4.99762 1.73304 10.08712 8.30558 2.93701 64.13992 -17.52301 66.95660 25.60691 41.64579 105.13948 -5.45144 10.89646 3.58290 17.16038 -47.23274 12.34296 33.56085 56.13437 -28.45608 -15.28096 0.04770 -0.00645 -13.88161 -17.03967 -6.43761 -31.41313 -47.55951 -4.68901 11.16904 90.00000 0.00000 41.48350 0.06978 0.07928 -38.60349 -41.19106 -4.66830 
44.59312 63.11486 -129.40913 3.94544 -9.63840 -16.14661 -58.24712 64.46160 42.10094 -0.06353 0.04240 0.01993 -15.14604 -25.36019 13.64754 -7.14873 6.05914 2.61159 -91.62598 -51.77449 -76.95941 -32.33734 52.72977 -105.01766 4.20888 8.03281 1.55974 12.94798 4.66329 4.66665 61.27353 -15.37476 64.55591 22.73609 39.18385 108.66481 -5.39241 12.76353 4.71018 18.31060 -53.11098 13.23580 43.71958 60.62125 -37.21619 -17.01922 0.03577 -0.00996 -15.08115 -18.13133 -8.40890 -32.67716 -51.38350 -5.63828 -147.51816 84.08302 158.43073 47.66299 0.15702 0.12875 -43.59574 -45.22512 -5.57794 
44.79527 59.56130 -129.71518 4.35980 -8.58913 -13.35733 -64.88525 66.39319 47.40459 0.02048 -0.03352 -0.00278 -12.91741 -28.03746 12.32055 -4.66328 2.74947 2.64691 -90.72599 -50.99855 -75.98799 -32.26711 51.78553 -105.50354 5.79638 7.22205 0.41723 14.98152 2.07940 6.12959 59.96656 -14.24215 63.66822 21.27573 41.78666 114.38869 -7.68625 13.90737 1.72965 16.66037 -60.36164 11.24958 55.92885 64.14311 -48.55505 -18.45279 0.02731 -0.01010 -15.68303 -18.24372 -10.51338 -37.24894 -54.67387 -10.24524 -156.09039 77.52380 166.72717 53.61853 0.14994 0.07404 -48.87446 -48.69175 -6.22571 
45.07035 55.84223 -129.75674 5.14625 -6.97369 -8.79713 -66.56604 69.09742 47.71797 0.02126 -0.04205 -0.00918 -11.05599 -29.73348 11.11176 -3.05364 0.13566 3.01290 -89.52063 -50.16996 -75.07557 -32.32666 51.13779 -106.28716 4.64002 9.15541 0.62416 8.69044 1.87097 15.95614 66.65501 -22.74829 62.20388 20.04996 43.35029 118.26418 4.44573 5.82165 8.67423 12.33080 -68.57388 6.82264 69.46413 66.62000 -62.75143 -19.30753 0.01701 -0.00592 -16.45745 -18.87800 -11.80519 -44.29108 -56.62097 -16.28465 -158.13637 70.94627 167.51796 61.13150 0.25306 0.05083 -82.19495 -54.73349 -33.77135 
45.38333 52.25807 -129.61464 5.76469 -5.64947 -4.79754 -66.72562 71.09657 47.06871 0.02248 -0.03728 -0.00896 -9.60589 -30.50884 9.97096 -1.88030 -1.63759 3.43036 -88.57794 -49.41293 -74.38098 -32.48702 50.68643 -107.21473 5.54644 8.77510 0.26385 10.97321 0.56928 15.43626 65.36808 -20.36299 65.84134 21.33731 42.42866 116.71820 -5.24209 13.44204 -0.17220 5.06474 -75.73586 -0.09216 84.43977 69.42620 -78.49239 -18.19471 -0.01641 0.01092 -17.06421 -19.73456 -13.49116 -49.71902 -57.47568 -19.41078 -161.92255 66.23143 170.16661 68.29575 0.20934 -0.01057 -74.11886 -56.96315 -21.13843 
45.85724 48.97059 -129.21457 6.27639 -4.65867 -1.30912 -65.72752 71.20665 46.24526 -0.05402 -0.09270 0.03695 -7.73425 -29.66047 8.27568 -0.13829 -2.05036 3.16387 -87.57839 -48.56393 -73.70257 -32.58520 50.31834 -108.15300 4.86138 10.05833 0.53298 13.69034 0.44540 14.11396 64.33914 -18.36639 71.52129 22.46119 44.49512 116.62603 10.19900 3.54485 12.04553 -7.92468 -81.64584 -12.40054 101.46201 71.55987 -96.63931 -15.83371 -0.02809 0.03408 -18.04948 -20.63504 -14.71200 -53.31076 -57.29169 -19.74552 -164.91457 62.67159 172.36647 75.72382 0.19949 -0.03373 -85.63393 -59.31221 -28.37882 
46.38702 46.10195 -128.63367 6.74445 -3.99800 1.68846 -63.43844 69.65226 44.90173 -0.04155 -0.09377 0.03486 -6.13755 -28.89757 5.66689 1.68746 -1.09751 2.50286 -92.35714 -46.57145 -79.28140 -35.06521 52.01872 -103.68665 5.13865 9.84438 0.56420 16.43449 1.39389 12.30428 63.79974 -17.85057 74.70979 23.78797 45.41842 116.60217 4.62045 8.09948 -3.29740 -37.28298 -85.93004 -40.81984 119.48787 72.55402 -116.20249 -12.59125 -0.02700 0.04768 -18.95038 -21.81135 -15.78612 -55.11157 -56.06216 -17.69041 -167.12543 60.36102 174.17769 83.26915 0.18802 -0.06020 -87.07027 -61.21864 -25.27188 
47.14592 43.81360 -127.78513 7.20874 -3.65431 4.22712 -59.62601 66.70942 42.61663 -0.00885 -0.10833 0.01774 -4.70351 -27.89557 2.53785 3.33372 0.94242 1.29613 -98.93025 -43.69260 -87.54951 -34.39002 51.21107 -102.24707 13.69181 19.66932 -9.66651 14.29263 -3.31864 17.58939 68.23444 -23.08974 71.32731 27.68309 46.20252 112.99902 3.20283 6.24886 4.42791 2.21485 -90.00000 0.00000 134.41382 72.79248 -133.62433 -8.55159 -0.02010 0.06185 -19.87558 -22.88868 -16.38060 -55.65660 -53.67278 -14.12643 -168.43903 59.32851 175.46255 90.76537 0.17159 -0.08323 -93.74866 -63.07659 -27.37074 
47.93519 42.06018 -126.81715 7.67082 -3.59156 6.34306 -56.14505 63.80096 40.54486 0.03445 0.00173 -0.02195 -3.67290 -28.11953 -0.56648 4.64415 2.89592 -0.07219 -102.17508 -41.48116 -91.54691 -33.47385 51.42424 -101.90652 1.93315 7.16263 2.86759 17.26983 -0.54391 14.40636 68.29012 -22.89459 74.79380 29.59011 47.18689 112.10878 -0.42285 9.01859 -4.28534 0.63502 -90.00000 0.00000 141.58763 72.79076 -143.59984 -5.24845 -0.00212 0.02645 -20.57014 -23.42002 -16.52394 -55.65765 -50.34710 -10.08870 -170.42357 59.30921 177.45673 90.09375 -0.00539 -0.00389 -89.79091 -64.89628 -25.92545 
49.04907 41.13632 -125.66508 8.10032 -3.77714 8.04518 -52.90897 60.91409 38.62265 0.03213 0.00915 -0.02483 -2.78862 -29.23907 -3.65072 2.53252 -6.02438 -0.75263 -93.54470 -38.93001 -83.86380 -35.54099 51.18560 -96.28645 18.67837 18.76810 -21.48162 20.11935 1.79305 11.47656 70.76119 -23.78542 80.86307 29.40176 49.25417 114.19131 -0.84308 16.61927 12.18932 -1.18949 -90.00000 0.00000 150.65497 72.74356 -155.14243 -0.86332 -0.00749 0.06470 -21.44821 -24.55228 -16.83612 -55.43129 -46.22359 -6.17085 -171.11572 60.34005 178.24243 89.43614 -0.01390 0.00437 -86.57987 -66.62000 -25.37472 
50.30981 40.72770 -124.46169 8.48000 -4.15225 9.37795 -49.84841 58.06933 36.76606 0.02757 0.01624 -0.02231 -2.00903 -31.27610 -6.72947 3.65099 -2.79573 -2.04639 -96.78519 -36.79820 -88.68944 -36.44340 51.48822 -93.31915 6.70852 15.59165 -17.50982 22.48596 3.88414 8.96227 72.40540 -24.38605 84.17824 29.27036 50.80262 115.45576 -3.32125 9.75162 -5.52076 -3.08820 -90.00000 0.00000 156.19073 73.02512 -162.45726 3.04526 0.00716 0.04123 -22.30517 -25.50749 -16.99569 -55.24381 -41.69338 -2.78641 -172.08510 63.48131 178.16457 88.00862 0.00052 0.01337 -80.46442 -66.76294 -21.65363 
